<?xml version="1.0" encoding="UTF-8" standalone="no"?>
<!-- Created with Inkscape (http://www.inkscape.org/) -->

<svg
   xmlns:dc="http://purl.org/dc/elements/1.1/"
   xmlns:cc="http://creativecommons.org/ns#"
   xmlns:rdf="http://www.w3.org/1999/02/22-rdf-syntax-ns#"
   xmlns:svg="http://www.w3.org/2000/svg"
   xmlns="http://www.w3.org/2000/svg"
   xmlns:xlink="http://www.w3.org/1999/xlink"
   xmlns:sodipodi="http://sodipodi.sourceforge.net/DTD/sodipodi-0.dtd"
   xmlns:inkscape="http://www.inkscape.org/namespaces/inkscape"
   width="1024"
   height="1024"
   id="svg2"
   version="1.1"
   inkscape:version="0.48.4 r9939"
   sodipodi:docname="Farm.svg"
   inkscape:export-filename="/home/william/Documents/Node (10th grade)/Boost/scene/track7/Farm.png"
   inkscape:export-xdpi="90"
   inkscape:export-ydpi="90">
  <defs
     id="defs4" />
  <sodipodi:namedview
     id="base"
     pagecolor="#ffffff"
     bordercolor="#666666"
     borderopacity="1.0"
     inkscape:pageopacity="0.0"
     inkscape:pageshadow="2"
     inkscape:zoom="0.6119512"
     inkscape:cx="691.42849"
     inkscape:cy="804.27038"
     inkscape:document-units="px"
     inkscape:current-layer="g3845"
     showgrid="true"
     inkscape:snap-bbox="true"
     inkscape:bbox-paths="true"
     inkscape:bbox-nodes="true"
     inkscape:snap-bbox-edge-midpoints="true"
     inkscape:snap-bbox-midpoints="true"
     inkscape:object-paths="true"
     inkscape:object-nodes="true"
     inkscape:snap-object-midpoints="true"
     inkscape:snap-center="true"
     inkscape:window-width="1280"
     inkscape:window-height="1000"
     inkscape:window-x="0"
     inkscape:window-y="24"
     inkscape:window-maximized="1"
     inkscape:snap-global="false">
    <inkscape:grid
       type="xygrid"
       id="grid2985"
       empspacing="4"
       visible="true"
       enabled="true"
       snapvisiblegridlinesonly="true"
       spacingx="32px"
       spacingy="32px" />
  </sodipodi:namedview>
  <metadata
     id="metadata7">
    <rdf:RDF>
      <cc:Work
         rdf:about="">
        <dc:format>image/svg+xml</dc:format>
        <dc:type
           rdf:resource="http://purl.org/dc/dcmitype/StillImage" />
        <dc:title></dc:title>
      </cc:Work>
    </rdf:RDF>
  </metadata>
  <g
     inkscape:label="Layer 1"
     inkscape:groupmode="layer"
     id="layer1"
     transform="translate(0,-28.36218)">
    <g
       id="g3845">
      <path
         sodipodi:nodetypes="ccccccc"
         inkscape:connector-curvature="0"
         id="path3759"
         d="m 912.29593,156.36218 -32.09186,-127.999999 -224,0 -32,127.999999 32,128 224,0 32.09186,-128"
         style="fill:#6bcd87;fill-opacity:1;fill-rule:nonzero;stroke:#17b63d;stroke-width:5;stroke-linecap:butt;stroke-linejoin:miter;stroke-miterlimit:4;stroke-opacity:1;stroke-dasharray:none" />
      <path
         inkscape:connector-curvature="0"
         id="path3843"
         d="m 762.57639,254.26676 2.53487,-201.597837 6.46716,13.559019 3.57843,188.038818 z"
         style="fill:#00a201;stroke:none;stroke-width:1px;stroke-linecap:butt;stroke-linejoin:miter;stroke-opacity:1;fill-opacity:1"
         sodipodi:nodetypes="ccccc"
         transform="translate(0,28.36218)" />
      <path
         inkscape:connector-curvature="0"
         id="use3901"
         d="m 768.68061,237.04005 c 12.71045,-19.06567 34.66487,-15.02144 34.66487,-15.02144 0,0 1.15549,16.17695 -12.13271,19.06568 -13.28819,2.88874 -22.53216,-4.04424 -22.53216,-4.04424 z"
         style="fill:#00b501;fill-opacity:1;stroke:#19c713;stroke-width:1px;stroke-linecap:butt;stroke-linejoin:miter;stroke-opacity:1" />
      <use
         x="0"
         y="0"
         xlink:href="#use3901"
         id="use3903"
         transform="translate(2.3109917,-45.694616)"
         width="1024"
         height="1024" />
      <use
         x="0"
         y="0"
         xlink:href="#use3903"
         id="use3905"
         transform="translate(1.155491,-45.116866)"
         width="1024"
         height="1024" />
      <use
         x="0"
         y="0"
         xlink:href="#use3905"
         id="use3907"
         transform="translate(2.2289302e-7,-43.383615)"
         width="1024"
         height="1024" />
      <path
         inkscape:connector-curvature="0"
         id="use3913"
         d="m 761.19524,228.32131 c -12.71045,-19.06567 -34.66487,-15.02144 -34.66487,-15.02144 0,0 -1.15549,16.17694 12.13271,19.06568 13.28819,2.88874 22.53216,-4.04424 22.53216,-4.04424 z"
         style="fill:#00b501;fill-opacity:1;stroke:#19c713;stroke-width:1px;stroke-linecap:butt;stroke-linejoin:miter;stroke-opacity:1" />
      <use
         x="0"
         y="0"
         xlink:href="#use3913"
         id="use3915"
         transform="translate(1.7332387,-54.360825)"
         width="1024"
         height="1024" />
      <use
         x="0"
         y="0"
         xlink:href="#use3915"
         id="use3917"
         transform="translate(0.57775021,-39.339388)"
         width="1024"
         height="1024" />
      <use
         x="0"
         y="0"
         xlink:href="#use3917"
         id="use3919"
         transform="translate(1.7332433,-45.694611)"
         width="1024"
         height="1024" />
    </g>
    <use
       x="0"
       y="0"
       xlink:href="#g3845"
       id="use3849"
       transform="translate(-256.25,128)"
       width="1024"
       height="1024" />
    <use
       x="0"
       y="0"
       xlink:href="#use3849"
       id="use3851"
       transform="translate(0,-256)"
       width="1024"
       height="1024" />
    <use
       x="0"
       y="0"
       xlink:href="#use3851"
       id="use3853"
       transform="translate(512,-4.9999994e-7)"
       width="1024"
       height="1024" />
    <use
       x="0"
       y="0"
       xlink:href="#use3853"
       id="use3855"
       transform="translate(0,256)"
       width="1024"
       height="1024" />
    <use
       x="0"
       y="0"
       xlink:href="#use3855"
       id="use3857"
       transform="translate(-255.75,128)"
       width="1024"
       height="1024" />
    <use
       x="0"
       y="0"
       xlink:href="#use3849"
       id="use3859"
       transform="translate(0,256)"
       width="1024"
       height="1024" />
    <use
       x="0"
       y="0"
       xlink:href="#use3855"
       id="use3861"
       transform="translate(0,256)"
       width="1024"
       height="1024" />
    <use
       x="0"
       y="0"
       xlink:href="#use3857"
       id="use3863"
       transform="translate(0,256)"
       width="1024"
       height="1024" />
    <use
       x="0"
       y="0"
       xlink:href="#use3849"
       id="use3865"
       transform="translate(-0.25,512)"
       width="1024"
       height="1024" />
    <use
       x="0"
       y="0"
       xlink:href="#use3855"
       id="use3867"
       transform="translate(-0.25,512)"
       width="1024"
       height="1024" />
    <use
       x="0"
       y="0"
       xlink:href="#use3857"
       id="use3869"
       transform="translate(-0.25,512)"
       width="1024"
       height="1024" />
    <use
       x="0"
       y="0"
       xlink:href="#use3859"
       id="use3871"
       transform="translate(-0.25,512)"
       width="1024"
       height="1024" />
    <use
       x="0"
       y="0"
       xlink:href="#use3861"
       id="use3873"
       transform="translate(-0.25,512)"
       width="1024"
       height="1024" />
    <use
       x="0"
       y="0"
       xlink:href="#use3849"
       id="use3877"
       transform="translate(-256,-128)"
       width="1024"
       height="1024" />
    <use
       x="0"
       y="0"
       xlink:href="#use3859"
       id="use3881"
       transform="translate(-256,-128)"
       width="1024"
       height="1024" />
    <use
       x="0"
       y="0"
       xlink:href="#use3865"
       id="use3883"
       transform="translate(-256,-128)"
       width="1024"
       height="1024" />
    <use
       x="0"
       y="0"
       xlink:href="#use3871"
       id="use3885"
       transform="translate(-256,-128)"
       width="1024"
       height="1024" />
    <use
       x="0"
       y="0"
       xlink:href="#use3849"
       id="use3887"
       transform="translate(-512,-4.9999994e-7)"
       width="1024"
       height="1024" />
    <use
       x="0"
       y="0"
       xlink:href="#use3851"
       id="use3889"
       transform="translate(-512,-4.9999994e-7)"
       width="1024"
       height="1024" />
    <use
       x="0"
       y="0"
       xlink:href="#use3859"
       id="use3891"
       transform="translate(-512,-4.9999994e-7)"
       width="1024"
       height="1024" />
    <use
       x="0"
       y="0"
       xlink:href="#use3865"
       id="use3893"
       transform="translate(-512,-4.9999994e-7)"
       width="1024"
       height="1024" />
    <use
       x="0"
       y="0"
       xlink:href="#use3871"
       id="use3895"
       transform="translate(-512,-4.9999994e-7)"
       width="1024"
       height="1024" />
  </g>
</svg>
