<?xml version="1.0" encoding="UTF-8" standalone="no"?>
<!-- Created with Inkscape (http://www.inkscape.org/) -->

<svg
   xmlns:dc="http://purl.org/dc/elements/1.1/"
   xmlns:cc="http://creativecommons.org/ns#"
   xmlns:rdf="http://www.w3.org/1999/02/22-rdf-syntax-ns#"
   xmlns:svg="http://www.w3.org/2000/svg"
   xmlns="http://www.w3.org/2000/svg"
   xmlns:xlink="http://www.w3.org/1999/xlink"
   xmlns:sodipodi="http://sodipodi.sourceforge.net/DTD/sodipodi-0.dtd"
   xmlns:inkscape="http://www.inkscape.org/namespaces/inkscape"
   width="1024"
   height="1024"
   id="svg2"
   version="1.1"
   inkscape:version="0.48.4 r9939"
   sodipodi:docname="New document 1">
  <defs
     id="defs4" />
  <sodipodi:namedview
     id="base"
     pagecolor="#ffffff"
     bordercolor="#666666"
     borderopacity="1.0"
     inkscape:pageopacity="0.0"
     inkscape:pageshadow="2"
     inkscape:zoom="0.43271484"
     inkscape:cx="248.56314"
     inkscape:cy="565.47414"
     inkscape:document-units="px"
     inkscape:current-layer="layer1"
     showgrid="true"
     inkscape:snap-bbox="true"
     inkscape:bbox-paths="true"
     inkscape:bbox-nodes="true"
     inkscape:snap-bbox-edge-midpoints="true"
     inkscape:snap-bbox-midpoints="true"
     inkscape:object-paths="true"
     inkscape:object-nodes="true"
     inkscape:snap-object-midpoints="true"
     inkscape:snap-center="true"
     inkscape:window-width="1366"
     inkscape:window-height="744"
     inkscape:window-x="0"
     inkscape:window-y="24"
     inkscape:window-maximized="1">
    <inkscape:grid
       type="xygrid"
       id="grid2985"
       empspacing="4"
       visible="true"
       enabled="true"
       snapvisiblegridlinesonly="true"
       spacingx="32px"
       spacingy="32px" />
  </sodipodi:namedview>
  <metadata
     id="metadata7">
    <rdf:RDF>
      <cc:Work
         rdf:about="">
        <dc:format>image/svg+xml</dc:format>
        <dc:type
           rdf:resource="http://purl.org/dc/dcmitype/StillImage" />
        <dc:title></dc:title>
      </cc:Work>
    </rdf:RDF>
  </metadata>
  <g
     inkscape:label="Layer 1"
     inkscape:groupmode="layer"
     id="layer1"
     transform="translate(0,-28.36218)">
    <path
       style="fill:#6ba5cd;fill-opacity:1;fill-rule:nonzero;stroke:#4c779a;stroke-width:5;stroke-linecap:butt;stroke-linejoin:miter;stroke-opacity:1;stroke-miterlimit:4;stroke-dasharray:none"
       d="M 128,28.270322 0,60.36218 l 0,224 128,32 128,-32 0,-224 -128,-32.091858"
       id="path3759"
       inkscape:connector-curvature="0"
       sodipodi:nodetypes="ccccccc" />
    <use
       x="0"
       y="0"
       xlink:href="#path3759"
       id="use3761"
       transform="translate(256,0)"
       width="1024"
       height="1024" />
    <use
       x="0"
       y="0"
       xlink:href="#use3761"
       id="use3763"
       transform="translate(256,0)"
       width="1024"
       height="1024" />
    <use
       x="0"
       y="0"
       xlink:href="#use3763"
       id="use3765"
       transform="translate(256,0)"
       width="1024"
       height="1024" />
    <use
       x="0"
       y="0"
       xlink:href="#use3765"
       id="use3767"
       transform="translate(-640,256.25)"
       width="1024"
       height="1024" />
    <use
       x="0"
       y="0"
       xlink:href="#use3767"
       id="use3769"
       transform="translate(-128,256)"
       width="1024"
       height="1024" />
    <use
       x="0"
       y="0"
       xlink:href="#use3769"
       id="use3771"
       transform="translate(256,9.9999988e-7)"
       width="1024"
       height="1024" />
    <use
       x="0"
       y="0"
       xlink:href="#use3767"
       id="use3773"
       transform="translate(256,0)"
       width="1024"
       height="1024" />
    <use
       x="0"
       y="0"
       xlink:href="#use3773"
       id="use3775"
       transform="translate(256,0)"
       width="1024"
       height="1024" />
    <use
       x="0"
       y="0"
       xlink:href="#use3775"
       id="use3777"
       transform="translate(256,0)"
       width="1024"
       height="1024" />
    <use
       x="0"
       y="0"
       xlink:href="#use3777"
       id="use3779"
       transform="translate(-1024,0)"
       width="1024"
       height="1024" />
    <use
       x="0"
       y="0"
       xlink:href="#use3779"
       id="use3781"
       transform="translate(-1.195e-6,-512)"
       width="1024"
       height="1024" />
    <use
       x="0"
       y="0"
       xlink:href="#use3781"
       id="use3783"
       transform="translate(256,0)"
       width="1024"
       height="1024" />
    <use
       x="0"
       y="0"
       xlink:href="#use3783"
       id="use3785"
       transform="translate(256,0)"
       width="1024"
       height="1024" />
    <use
       x="0"
       y="0"
       xlink:href="#use3785"
       id="use3787"
       transform="translate(256,0)"
       width="1024"
       height="1024" />
    <use
       x="0"
       y="0"
       xlink:href="#use3787"
       id="use3789"
       transform="translate(256,0)"
       width="1024"
       height="1024" />
    <use
       x="0"
       y="0"
       xlink:href="#use3771"
       id="use3791"
       transform="translate(256,9.9999988e-7)"
       width="1024"
       height="1024" />
    <use
       x="0"
       y="0"
       xlink:href="#use3791"
       id="use3793"
       transform="translate(256,9.9999988e-7)"
       width="1024"
       height="1024" />
    <use
       x="0"
       y="0"
       xlink:href="#use3793"
       id="use3795"
       transform="translate(128,256)"
       width="1024"
       height="1024" />
    <use
       x="0"
       y="0"
       xlink:href="#use3795"
       id="use3797"
       transform="translate(-256,3.9999995e-6)"
       width="1024"
       height="1024" />
    <use
       x="0"
       y="0"
       xlink:href="#use3797"
       id="use3799"
       transform="translate(-256,3.9999995e-6)"
       width="1024"
       height="1024" />
    <use
       x="0"
       y="0"
       xlink:href="#use3799"
       id="use3801"
       transform="translate(-256,3.9999995e-6)"
       width="1024"
       height="1024" />
    <use
       x="0"
       y="0"
       xlink:href="#use3801"
       id="use3803"
       transform="translate(-256,3.9999995e-6)"
       width="1024"
       height="1024" />
  </g>
</svg>
