<?xml version="1.0" encoding="UTF-8" standalone="no"?>
<svg
   xmlns:dc="http://purl.org/dc/elements/1.1/"
   xmlns:cc="http://creativecommons.org/ns#"
   xmlns:rdf="http://www.w3.org/1999/02/22-rdf-syntax-ns#"
   xmlns:svg="http://www.w3.org/2000/svg"
   xmlns="http://www.w3.org/2000/svg"
   xmlns:sodipodi="http://sodipodi.sourceforge.net/DTD/sodipodi-0.dtd"
   xmlns:inkscape="http://www.inkscape.org/namespaces/inkscape"
   width="1024"
   height="1024"
   viewBox="0 0 1024 1024"
   version="1.1"
   id="svg5571"
   inkscape:version="0.48.4 r9939"
   sodipodi:docname="Pad2Powerup.svg"
   inkscape:export-filename="/home/william/Documents/Node (10th grade)/Boost/scene/trackresource/Pad2Powerup.png"
   inkscape:export-xdpi="90"
   inkscape:export-ydpi="90">
  <metadata
     id="metadata5763">
    <rdf:RDF>
      <cc:Work
         rdf:about="">
        <dc:format>image/svg+xml</dc:format>
        <dc:type
           rdf:resource="http://purl.org/dc/dcmitype/StillImage" />
        <dc:title></dc:title>
      </cc:Work>
    </rdf:RDF>
  </metadata>
  <defs
     id="defs5761" />
  <sodipodi:namedview
     pagecolor="#ffffff"
     bordercolor="#666666"
     borderopacity="1"
     objecttolerance="10"
     gridtolerance="10"
     guidetolerance="10"
     inkscape:pageopacity="0"
     inkscape:pageshadow="2"
     inkscape:window-width="1366"
     inkscape:window-height="744"
     id="namedview5759"
     showgrid="false"
     inkscape:zoom="0.56987"
     inkscape:cx="483.92342"
     inkscape:cy="512"
     inkscape:window-x="0"
     inkscape:window-y="24"
     inkscape:window-maximized="1"
     inkscape:current-layer="svg5571"
     inkscape:snap-bbox="true"
     inkscape:bbox-paths="true"
     inkscape:snap-bbox-edge-midpoints="false"
     inkscape:bbox-nodes="true"
     inkscape:snap-bbox-midpoints="false"
     inkscape:snap-grids="true"
     inkscape:snap-page="true" />
  <desc
     id="desc5573">'Pad2.blend', Cylinder.013, (Blender 2.66 (sub 1))</desc>
  <polygon
     points="819.2,1024 819.2,0 0,0 0,1024 "
     id="polygon5757"
     style="fill:#000000;fill-opacity:1;stroke:none;opacity:0" />
  <polygon
     stroke="black"
     stroke-width="1"
     fill="grey"
     fill-opacity="0.25"
     points="337.378,356.766 337.378,290.284 268.850,257.044 200.323,290.284 200.323,356.766 268.850,390.007 "
     id="polygon5583"
     style="fill:#ffcd40;fill-opacity:1;stroke:none" />
  <polygon
     stroke="black"
     stroke-width="1"
     fill="grey"
     fill-opacity="0.25"
     points="618.877,356.766 618.877,290.284 550.350,257.044 481.823,290.284 481.823,356.766 550.350,390.007 "
     id="polygon5597"
     style="fill:#ffcd40;fill-opacity:1;stroke:none" />
  <polygon
     stroke="black"
     stroke-width="1"
     fill="grey"
     fill-opacity="0.25"
     points="618.877,733.716 618.877,667.234 550.350,633.993 481.823,667.234 481.823,733.716 550.350,766.956 "
     id="polygon5611"
     style="fill:#ffcd40;fill-opacity:1;stroke:none" />
  <polygon
     stroke="black"
     stroke-width="1"
     fill="grey"
     fill-opacity="0.25"
     points="337.378,733.716 337.378,667.234 268.850,633.993 200.323,667.234 200.323,733.716 268.850,766.956 "
     id="polygon5625"
     style="fill:#ffcd40;fill-opacity:1;stroke:none" />
  <polygon
     stroke="black"
     stroke-width="1"
     fill="grey"
     fill-opacity="0.25"
     points="478.127,922.190 478.127,855.709 409.600,822.468 341.073,855.709 341.073,922.190 409.600,955.431 "
     id="polygon5639"
     style="fill:#ffcd40;fill-opacity:1;stroke:none" />
  <polygon
     stroke="black"
     stroke-width="1"
     fill="grey"
     fill-opacity="0.25"
     points="478.127,168.291 478.127,101.810 409.600,68.569 341.073,101.810 341.073,168.291 409.600,201.532 "
     id="polygon5653"
     style="fill:#ffcd40;fill-opacity:1;stroke:none" />
  <polygon
     stroke="black"
     stroke-width="1"
     fill="grey"
     fill-opacity="0.25"
     points="759.627,168.291 759.627,101.810 691.100,68.569 622.572,101.810 622.572,168.291 691.100,201.532 "
     id="polygon5667"
     style="fill:#770000;fill-opacity:1;stroke:none" />
  <polygon
     stroke="black"
     stroke-width="1"
     fill="grey"
     fill-opacity="0.25"
     points="196.628,168.291 196.628,101.810 128.100,68.569 59.573,101.810 59.573,168.291 128.100,201.532 "
     id="polygon5681"
     style="fill:#770000;fill-opacity:1;stroke:none" />
  <polygon
     stroke="black"
     stroke-width="1"
     fill="grey"
     fill-opacity="0.25"
     points="196.628,922.190 196.628,855.709 128.100,822.468 59.573,855.709 59.573,922.190 128.100,955.431 "
     id="polygon5695"
     style="fill:#770000;fill-opacity:1;stroke:none" />
  <polygon
     stroke="black"
     stroke-width="1"
     fill="grey"
     fill-opacity="0.25"
     points="759.627,922.190 759.627,855.709 691.100,822.468 622.572,855.709 622.572,922.190 691.100,955.431 "
     id="polygon5709"
     style="fill:#770000;fill-opacity:1;stroke:none" />
  <polygon
     stroke="black"
     stroke-width="1"
     fill="grey"
     fill-opacity="0.25"
     points="759.627,545.241 759.627,478.759 691.100,445.518 622.572,478.759 622.572,545.241 691.100,578.482 "
     id="polygon5723"
     style="fill:#ffcd40;fill-opacity:1;stroke:none" />
  <polygon
     stroke="black"
     stroke-width="1"
     fill="grey"
     fill-opacity="0.25"
     points="196.628,545.241 196.628,478.759 128.100,445.518 59.573,478.759 59.573,545.241 128.100,578.482 "
     id="polygon5737"
     style="fill:#ffcd40;fill-opacity:1;stroke:none" />
  <polygon
     stroke="black"
     stroke-width="1"
     fill="grey"
     fill-opacity="0.25"
     points="478.127,545.241 478.127,478.759 409.600,445.518 341.073,478.759 341.073,545.241 409.600,578.482 "
     id="polygon5751"
     style="fill:#770000;fill-opacity:1;stroke:none" />
  <polygon
     style="fill:#000000;fill-opacity:1;stroke:none"
     points="819.2,0.001 1024,0 1024,1024 819.2,1024 "
     id="polygon5755" />
</svg>
