<?xml version="1.0" standalone="no"?>
<!DOCTYPE svg PUBLIC "-//W3C//DTD SVG 1.1//EN" 
  "http://www.w3.org/Graphics/SVG/1.1/DTD/svg11.dtd">
<svg width="1024" height="1024" viewBox="0 0 1024 1024"
     xmlns="http://www.w3.org/2000/svg" version="1.1">
<desc>'Pad2.blend', Cylinder.013, (Blender 2.66 (sub 1))</desc>
<polygon stroke="black" stroke-width="1" fill="grey" fill-opacity="0.25" points="1024.000,1024.000 819.200,1024.000 819.200,0.001 1024.000,-0.000 " />
<polygon stroke="black" stroke-width="1" fill="grey" fill-opacity="0.25" points="1024.000,1024.000 819.200,1024.000 819.200,0.001 1024.000,-0.000 " />
<polygon stroke="black" stroke-width="1" fill="grey" fill-opacity="0.25" points="1024.000,1024.000 819.200,1024.000 819.200,0.001 1024.000,-0.000 " />
<polygon stroke="black" stroke-width="1" fill="grey" fill-opacity="0.25" points="1024.000,1024.000 819.200,1024.000 819.200,0.000 1024.000,-0.000 " />
<polygon stroke="black" stroke-width="1" fill="grey" fill-opacity="0.25" points="337.378,356.766 337.378,290.284 268.850,257.044 200.323,290.284 200.323,356.766 268.850,390.007 " />
<polygon stroke="black" stroke-width="1" fill="grey" fill-opacity="0.25" points="1024.000,1024.000 819.200,1024.000 819.200,0.000 1024.000,-0.000 " />
<polygon stroke="black" stroke-width="1" fill="grey" fill-opacity="0.25" points="1024.000,1024.000 819.200,1024.000 819.200,0.001 1024.000,-0.000 " />
<polygon stroke="black" stroke-width="1" fill="grey" fill-opacity="0.25" points="1024.000,1024.000 819.200,1024.000 819.200,0.001 1024.000,-0.000 " />
<polygon stroke="black" stroke-width="1" fill="grey" fill-opacity="0.25" points="1024.000,1024.000 819.200,1024.000 819.200,0.001 1024.000,-0.000 " />
<polygon stroke="black" stroke-width="1" fill="grey" fill-opacity="0.25" points="1024.000,1024.000 819.200,1024.000 819.200,0.001 1024.000,-0.000 " />
<polygon stroke="black" stroke-width="1" fill="grey" fill-opacity="0.25" points="1024.000,1024.000 819.200,1024.000 819.200,0.000 1024.000,-0.000 " />
<polygon stroke="black" stroke-width="1" fill="grey" fill-opacity="0.25" points="618.877,356.766 618.877,290.284 550.350,257.044 481.823,290.284 481.823,356.766 550.350,390.007 " />
<polygon stroke="black" stroke-width="1" fill="grey" fill-opacity="0.25" points="1024.000,1024.000 819.200,1024.000 819.200,0.000 1024.000,-0.000 " />
<polygon stroke="black" stroke-width="1" fill="grey" fill-opacity="0.25" points="1024.000,1024.000 819.200,1024.000 819.200,0.001 1024.000,-0.000 " />
<polygon stroke="black" stroke-width="1" fill="grey" fill-opacity="0.25" points="1024.000,1024.000 819.200,1024.000 819.200,0.001 1024.000,-0.000 " />
<polygon stroke="black" stroke-width="1" fill="grey" fill-opacity="0.25" points="1024.000,1024.000 819.200,1024.000 819.200,0.001 1024.000,-0.000 " />
<polygon stroke="black" stroke-width="1" fill="grey" fill-opacity="0.25" points="1024.000,1024.000 819.200,1024.000 819.200,0.001 1024.000,-0.000 " />
<polygon stroke="black" stroke-width="1" fill="grey" fill-opacity="0.25" points="1024.000,1024.000 819.200,1024.000 819.200,0.000 1024.000,-0.000 " />
<polygon stroke="black" stroke-width="1" fill="grey" fill-opacity="0.25" points="618.877,733.716 618.877,667.234 550.350,633.993 481.823,667.234 481.823,733.716 550.350,766.956 " />
<polygon stroke="black" stroke-width="1" fill="grey" fill-opacity="0.25" points="1024.000,1024.000 819.200,1024.000 819.200,0.000 1024.000,-0.000 " />
<polygon stroke="black" stroke-width="1" fill="grey" fill-opacity="0.25" points="1024.000,1024.000 819.200,1024.000 819.200,0.001 1024.000,-0.000 " />
<polygon stroke="black" stroke-width="1" fill="grey" fill-opacity="0.25" points="1024.000,1024.000 819.200,1024.000 819.200,0.001 1024.000,-0.000 " />
<polygon stroke="black" stroke-width="1" fill="grey" fill-opacity="0.25" points="1024.000,1024.000 819.200,1024.000 819.200,0.001 1024.000,-0.000 " />
<polygon stroke="black" stroke-width="1" fill="grey" fill-opacity="0.25" points="1024.000,1024.000 819.200,1024.000 819.200,0.001 1024.000,-0.000 " />
<polygon stroke="black" stroke-width="1" fill="grey" fill-opacity="0.25" points="1024.000,1024.000 819.200,1024.000 819.200,0.000 1024.000,-0.000 " />
<polygon stroke="black" stroke-width="1" fill="grey" fill-opacity="0.25" points="337.378,733.716 337.378,667.234 268.850,633.993 200.323,667.234 200.323,733.716 268.850,766.956 " />
<polygon stroke="black" stroke-width="1" fill="grey" fill-opacity="0.25" points="1024.000,1024.000 819.200,1024.000 819.200,0.000 1024.000,-0.000 " />
<polygon stroke="black" stroke-width="1" fill="grey" fill-opacity="0.25" points="1024.000,1024.000 819.200,1024.000 819.200,0.001 1024.000,-0.000 " />
<polygon stroke="black" stroke-width="1" fill="grey" fill-opacity="0.25" points="1024.000,1024.000 819.200,1024.000 819.200,0.001 1024.000,-0.000 " />
<polygon stroke="black" stroke-width="1" fill="grey" fill-opacity="0.25" points="1024.000,1024.000 819.200,1024.000 819.200,0.001 1024.000,-0.000 " />
<polygon stroke="black" stroke-width="1" fill="grey" fill-opacity="0.25" points="1024.000,1024.000 819.200,1024.000 819.200,0.001 1024.000,-0.000 " />
<polygon stroke="black" stroke-width="1" fill="grey" fill-opacity="0.25" points="1024.000,1024.000 819.200,1024.000 819.200,0.000 1024.000,-0.000 " />
<polygon stroke="black" stroke-width="1" fill="grey" fill-opacity="0.25" points="478.127,922.190 478.127,855.709 409.600,822.468 341.073,855.709 341.073,922.190 409.600,955.431 " />
<polygon stroke="black" stroke-width="1" fill="grey" fill-opacity="0.25" points="1024.000,1024.000 819.200,1024.000 819.200,0.000 1024.000,-0.000 " />
<polygon stroke="black" stroke-width="1" fill="grey" fill-opacity="0.25" points="1024.000,1024.000 819.200,1024.000 819.200,0.001 1024.000,-0.000 " />
<polygon stroke="black" stroke-width="1" fill="grey" fill-opacity="0.25" points="1024.000,1024.000 819.200,1024.000 819.200,0.001 1024.000,-0.000 " />
<polygon stroke="black" stroke-width="1" fill="grey" fill-opacity="0.25" points="1024.000,1024.000 819.200,1024.000 819.200,0.001 1024.000,-0.000 " />
<polygon stroke="black" stroke-width="1" fill="grey" fill-opacity="0.25" points="1024.000,1024.000 819.200,1024.000 819.200,0.001 1024.000,-0.000 " />
<polygon stroke="black" stroke-width="1" fill="grey" fill-opacity="0.25" points="1024.000,1024.000 819.200,1024.000 819.200,0.000 1024.000,-0.000 " />
<polygon stroke="black" stroke-width="1" fill="grey" fill-opacity="0.25" points="478.127,168.291 478.127,101.810 409.600,68.569 341.073,101.810 341.073,168.291 409.600,201.532 " />
<polygon stroke="black" stroke-width="1" fill="grey" fill-opacity="0.25" points="1024.000,1024.000 819.200,1024.000 819.200,0.000 1024.000,-0.000 " />
<polygon stroke="black" stroke-width="1" fill="grey" fill-opacity="0.25" points="1024.000,1024.000 819.200,1024.000 819.200,0.001 1024.000,-0.000 " />
<polygon stroke="black" stroke-width="1" fill="grey" fill-opacity="0.25" points="1024.000,1024.000 819.200,1024.000 819.200,0.001 1024.000,-0.000 " />
<polygon stroke="black" stroke-width="1" fill="grey" fill-opacity="0.25" points="1024.000,1024.000 819.200,1024.000 819.200,0.001 1024.000,-0.000 " />
<polygon stroke="black" stroke-width="1" fill="grey" fill-opacity="0.25" points="1024.000,1024.000 819.200,1024.000 819.200,0.001 1024.000,-0.000 " />
<polygon stroke="black" stroke-width="1" fill="grey" fill-opacity="0.25" points="1024.000,1024.000 819.200,1024.000 819.200,0.000 1024.000,-0.000 " />
<polygon stroke="black" stroke-width="1" fill="grey" fill-opacity="0.25" points="759.627,168.291 759.627,101.810 691.100,68.569 622.572,101.810 622.572,168.291 691.100,201.532 " />
<polygon stroke="black" stroke-width="1" fill="grey" fill-opacity="0.25" points="1024.000,1024.000 819.200,1024.000 819.200,0.000 1024.000,-0.000 " />
<polygon stroke="black" stroke-width="1" fill="grey" fill-opacity="0.25" points="1024.000,1024.000 819.200,1024.000 819.200,0.001 1024.000,-0.000 " />
<polygon stroke="black" stroke-width="1" fill="grey" fill-opacity="0.25" points="1024.000,1024.000 819.200,1024.000 819.200,0.001 1024.000,-0.000 " />
<polygon stroke="black" stroke-width="1" fill="grey" fill-opacity="0.25" points="1024.000,1024.000 819.200,1024.000 819.200,0.001 1024.000,-0.000 " />
<polygon stroke="black" stroke-width="1" fill="grey" fill-opacity="0.25" points="1024.000,1024.000 819.200,1024.000 819.200,0.001 1024.000,-0.000 " />
<polygon stroke="black" stroke-width="1" fill="grey" fill-opacity="0.25" points="1024.000,1024.000 819.200,1024.000 819.200,0.000 1024.000,-0.000 " />
<polygon stroke="black" stroke-width="1" fill="grey" fill-opacity="0.25" points="196.628,168.291 196.628,101.810 128.100,68.569 59.573,101.810 59.573,168.291 128.100,201.532 " />
<polygon stroke="black" stroke-width="1" fill="grey" fill-opacity="0.25" points="1024.000,1024.000 819.200,1024.000 819.200,0.000 1024.000,-0.000 " />
<polygon stroke="black" stroke-width="1" fill="grey" fill-opacity="0.25" points="1024.000,1024.000 819.200,1024.000 819.200,0.001 1024.000,-0.000 " />
<polygon stroke="black" stroke-width="1" fill="grey" fill-opacity="0.25" points="1024.000,1024.000 819.200,1024.000 819.200,0.001 1024.000,-0.000 " />
<polygon stroke="black" stroke-width="1" fill="grey" fill-opacity="0.25" points="1024.000,1024.000 819.200,1024.000 819.200,0.001 1024.000,-0.000 " />
<polygon stroke="black" stroke-width="1" fill="grey" fill-opacity="0.25" points="1024.000,1024.000 819.200,1024.000 819.200,0.001 1024.000,-0.000 " />
<polygon stroke="black" stroke-width="1" fill="grey" fill-opacity="0.25" points="1024.000,1024.000 819.200,1024.000 819.200,0.000 1024.000,-0.000 " />
<polygon stroke="black" stroke-width="1" fill="grey" fill-opacity="0.25" points="196.628,922.190 196.628,855.709 128.100,822.468 59.573,855.709 59.573,922.190 128.100,955.431 " />
<polygon stroke="black" stroke-width="1" fill="grey" fill-opacity="0.25" points="1024.000,1024.000 819.200,1024.000 819.200,0.000 1024.000,-0.000 " />
<polygon stroke="black" stroke-width="1" fill="grey" fill-opacity="0.25" points="1024.000,1024.000 819.200,1024.000 819.200,0.001 1024.000,-0.000 " />
<polygon stroke="black" stroke-width="1" fill="grey" fill-opacity="0.25" points="1024.000,1024.000 819.200,1024.000 819.200,0.001 1024.000,-0.000 " />
<polygon stroke="black" stroke-width="1" fill="grey" fill-opacity="0.25" points="1024.000,1024.000 819.200,1024.000 819.200,0.001 1024.000,-0.000 " />
<polygon stroke="black" stroke-width="1" fill="grey" fill-opacity="0.25" points="1024.000,1024.000 819.200,1024.000 819.200,0.001 1024.000,-0.000 " />
<polygon stroke="black" stroke-width="1" fill="grey" fill-opacity="0.25" points="1024.000,1024.000 819.200,1024.000 819.200,0.000 1024.000,-0.000 " />
<polygon stroke="black" stroke-width="1" fill="grey" fill-opacity="0.25" points="759.627,922.190 759.627,855.709 691.100,822.468 622.572,855.709 622.572,922.190 691.100,955.431 " />
<polygon stroke="black" stroke-width="1" fill="grey" fill-opacity="0.25" points="1024.000,1024.000 819.200,1024.000 819.200,0.000 1024.000,-0.000 " />
<polygon stroke="black" stroke-width="1" fill="grey" fill-opacity="0.25" points="1024.000,1024.000 819.200,1024.000 819.200,0.001 1024.000,-0.000 " />
<polygon stroke="black" stroke-width="1" fill="grey" fill-opacity="0.25" points="1024.000,1024.000 819.200,1024.000 819.200,0.001 1024.000,-0.000 " />
<polygon stroke="black" stroke-width="1" fill="grey" fill-opacity="0.25" points="1024.000,1024.000 819.200,1024.000 819.200,0.001 1024.000,-0.000 " />
<polygon stroke="black" stroke-width="1" fill="grey" fill-opacity="0.25" points="1024.000,1024.000 819.200,1024.000 819.200,0.001 1024.000,-0.000 " />
<polygon stroke="black" stroke-width="1" fill="grey" fill-opacity="0.25" points="1024.000,1024.000 819.200,1024.000 819.200,0.000 1024.000,-0.000 " />
<polygon stroke="black" stroke-width="1" fill="grey" fill-opacity="0.25" points="759.627,545.241 759.627,478.759 691.100,445.518 622.572,478.759 622.572,545.241 691.100,578.482 " />
<polygon stroke="black" stroke-width="1" fill="grey" fill-opacity="0.25" points="1024.000,1024.000 819.200,1024.000 819.200,0.000 1024.000,-0.000 " />
<polygon stroke="black" stroke-width="1" fill="grey" fill-opacity="0.25" points="1024.000,1024.000 819.200,1024.000 819.200,0.001 1024.000,-0.000 " />
<polygon stroke="black" stroke-width="1" fill="grey" fill-opacity="0.25" points="1024.000,1024.000 819.200,1024.000 819.200,0.001 1024.000,-0.000 " />
<polygon stroke="black" stroke-width="1" fill="grey" fill-opacity="0.25" points="1024.000,1024.000 819.200,1024.000 819.200,0.001 1024.000,-0.000 " />
<polygon stroke="black" stroke-width="1" fill="grey" fill-opacity="0.25" points="1024.000,1024.000 819.200,1024.000 819.200,0.001 1024.000,-0.000 " />
<polygon stroke="black" stroke-width="1" fill="grey" fill-opacity="0.25" points="1024.000,1024.000 819.200,1024.000 819.200,0.000 1024.000,-0.000 " />
<polygon stroke="black" stroke-width="1" fill="grey" fill-opacity="0.25" points="196.628,545.241 196.628,478.759 128.100,445.518 59.573,478.759 59.573,545.241 128.100,578.482 " />
<polygon stroke="black" stroke-width="1" fill="grey" fill-opacity="0.25" points="1024.000,1024.000 819.200,1024.000 819.200,0.000 1024.000,-0.000 " />
<polygon stroke="black" stroke-width="1" fill="grey" fill-opacity="0.25" points="1024.000,1024.000 819.200,1024.000 819.200,0.001 1024.000,-0.000 " />
<polygon stroke="black" stroke-width="1" fill="grey" fill-opacity="0.25" points="1024.000,1024.000 819.200,1024.000 819.200,0.001 1024.000,-0.000 " />
<polygon stroke="black" stroke-width="1" fill="grey" fill-opacity="0.25" points="1024.000,1024.000 819.200,1024.000 819.200,0.001 1024.000,-0.000 " />
<polygon stroke="black" stroke-width="1" fill="grey" fill-opacity="0.25" points="1024.000,1024.000 819.200,1024.000 819.200,0.001 1024.000,-0.000 " />
<polygon stroke="black" stroke-width="1" fill="grey" fill-opacity="0.25" points="1024.000,1024.000 819.200,1024.000 819.200,0.000 1024.000,-0.000 " />
<polygon stroke="black" stroke-width="1" fill="grey" fill-opacity="0.25" points="478.127,545.241 478.127,478.759 409.600,445.518 341.073,478.759 341.073,545.241 409.600,578.482 " />
<polygon stroke="black" stroke-width="1" fill="grey" fill-opacity="0.25" points="1024.000,1024.000 819.200,1024.000 819.200,0.000 1024.000,-0.000 " />
<polygon stroke="black" stroke-width="1" fill="grey" fill-opacity="0.25" points="1024.000,1024.000 819.200,1024.000 819.200,0.001 1024.000,-0.000 " />
<polygon stroke="black" stroke-width="1" fill="grey" fill-opacity="0.25" points="0.000,0.000 0.000,1024.000 819.200,1024.000 819.200,0.000 " />

</svg>
